<mxfile host="65bd71144e">
    <diagram id="uxVwC1siCvC3Ia_YClyH" name="Page-1">
        <mxGraphModel dx="1274" dy="1133" grid="1" gridSize="10" guides="1" tooltips="1" connect="1" arrows="1" fold="1" page="1" pageScale="1" pageWidth="1200" pageHeight="1920" math="0" shadow="0">
            <root>
                <mxCell id="0"/>
                <mxCell id="1" parent="0"/>
                <mxCell id="2" value="高速缓存Cache与主存块之间的映射方式-全相联映射" style="text;html=1;align=center;verticalAlign=middle;whiteSpace=wrap;rounded=0;fontSize=18;fontStyle=1" parent="1" vertex="1">
                    <mxGeometry x="442.5" y="40" width="440" height="40" as="geometry"/>
                </mxCell>
                <mxCell id="48" value="全相联映射" style="text;html=1;align=center;verticalAlign=middle;whiteSpace=wrap;rounded=0;fontSize=16;fontStyle=1" parent="1" vertex="1">
                    <mxGeometry x="610" y="120" width="120" height="40" as="geometry"/>
                </mxCell>
                <mxCell id="50" value="&lt;p data-pm-slice=&quot;1 1 [&amp;quot;bulletList&amp;quot;,null,&amp;quot;listItem&amp;quot;,null]&quot; data-prosemirror-node-block=&quot;true&quot; data-prosemirror-node-name=&quot;paragraph&quot; data-prosemirror-content-type=&quot;node&quot;&gt;&lt;span data-prosemirror-mark-name=&quot;strong&quot; data-prosemirror-content-type=&quot;mark&quot;&gt;&lt;font style=&quot;color: rgb(255, 0, 0);&quot;&gt;【随便放】每个主存块映射到 Cache 的任意行中。&lt;/font&gt;&lt;/span&gt;&lt;/p&gt;" style="text;html=1;align=center;verticalAlign=middle;whiteSpace=wrap;rounded=0;" parent="1" vertex="1">
                    <mxGeometry x="530" y="170" width="290" height="30" as="geometry"/>
                </mxCell>
                <mxCell id="82" value="主存块号" style="rounded=0;whiteSpace=wrap;html=1;container=0;" parent="1" vertex="1">
                    <mxGeometry x="560" y="240" width="120" height="40" as="geometry"/>
                </mxCell>
                <mxCell id="83" value="块内地址" style="rounded=0;whiteSpace=wrap;html=1;container=0;" parent="1" vertex="1">
                    <mxGeometry x="680" y="240" width="120" height="40" as="geometry"/>
                </mxCell>
                <mxCell id="86" value="主存地址" style="text;html=1;align=center;verticalAlign=middle;whiteSpace=wrap;rounded=0;" parent="1" vertex="1">
                    <mxGeometry x="480" y="245" width="60" height="30" as="geometry"/>
                </mxCell>
                <mxCell id="87" value="&lt;font style=&quot;font-size: 14px; color: rgb(0, 204, 0);&quot;&gt;m 位&lt;/font&gt;" style="text;html=1;align=center;verticalAlign=middle;whiteSpace=wrap;rounded=0;" parent="1" vertex="1">
                    <mxGeometry x="590" y="280" width="60" height="30" as="geometry"/>
                </mxCell>
                <mxCell id="88" value="&lt;font style=&quot;font-size: 14px; color: rgb(0, 204, 0);&quot;&gt;b 位&lt;/font&gt;" style="text;html=1;align=center;verticalAlign=middle;whiteSpace=wrap;rounded=0;" parent="1" vertex="1">
                    <mxGeometry x="710" y="280" width="60" height="30" as="geometry"/>
                </mxCell>
                <mxCell id="89" value="tag" style="rounded=0;whiteSpace=wrap;html=1;container=0;" parent="1" vertex="1">
                    <mxGeometry x="560" y="320" width="120" height="40" as="geometry"/>
                </mxCell>
                <mxCell id="90" value="块内地址" style="rounded=0;whiteSpace=wrap;html=1;container=0;" parent="1" vertex="1">
                    <mxGeometry x="680" y="320" width="120" height="40" as="geometry"/>
                </mxCell>
                <mxCell id="91" value="主存地址" style="text;html=1;align=center;verticalAlign=middle;whiteSpace=wrap;rounded=0;" parent="1" vertex="1">
                    <mxGeometry x="480" y="325" width="60" height="30" as="geometry"/>
                </mxCell>
                <mxCell id="92" value="&lt;font style=&quot;font-size: 14px; color: rgb(0, 204, 0);&quot;&gt;m 位&lt;/font&gt;" style="text;html=1;align=center;verticalAlign=middle;whiteSpace=wrap;rounded=0;" parent="1" vertex="1">
                    <mxGeometry x="590" y="360" width="60" height="30" as="geometry"/>
                </mxCell>
                <mxCell id="93" value="&lt;font style=&quot;font-size: 14px; color: rgb(0, 204, 0);&quot;&gt;b 位&lt;/font&gt;" style="text;html=1;align=center;verticalAlign=middle;whiteSpace=wrap;rounded=0;" parent="1" vertex="1">
                    <mxGeometry x="710" y="360" width="60" height="30" as="geometry"/>
                </mxCell>
                <mxCell id="94" value="&lt;font style=&quot;color: rgb(0, 0, 0);&quot;&gt;给每个 Cache 行设置一个 m 位长的标记tag，&lt;/font&gt;&lt;div style=&quot;line-height: 200%;&quot;&gt;&lt;font style=&quot;color: rgb(0, 0, 0);&quot;&gt;主存某块调入 Cache 之后，&lt;/font&gt;&lt;/div&gt;&lt;div style=&quot;line-height: 200%;&quot;&gt;&lt;font style=&quot;color: rgb(0, 0, 0);&quot;&gt;就将主存地址高 t 位设置在 Cache 行的标记位中。&lt;/font&gt;&lt;/div&gt;" style="text;html=1;align=left;verticalAlign=middle;whiteSpace=wrap;rounded=0;fontSize=14;" parent="1" vertex="1">
                    <mxGeometry x="485" y="400" width="355" height="80" as="geometry"/>
                </mxCell>
            </root>
        </mxGraphModel>
    </diagram>
</mxfile>